<svg xmlns="http://www.w3.org/2000/svg" xmlns:xlink="http://www.w3.org/1999/xlink" version="1.1" id="Layer_1" x="0px" y="0px" width="186.414px" height="85.509px" viewBox="0 0 186.414 85.509" enable-background="new 0 0 186.414 85.509" xml:space="preserve"> <g> <path fill-rule="evenodd" clip-rule="evenodd" fill="#007DC5" d="M174.775,77.048h2.686l1.178,5.146l1.325-5.146h2.607v8.333   h-1.715v-6.978l-1.703,6.978h-1.331l-1.557-6.978v6.978h-1.489V77.048z M171.571,81.211c0-1.122-0.087-1.87-0.263-2.243   c-0.175-0.372-0.454-0.558-0.836-0.558c-0.379,0-0.655,0.187-0.831,0.56c-0.175,0.375-0.262,1.122-0.262,2.24   c0,1.1,0.086,1.842,0.26,2.229c0.172,0.387,0.45,0.579,0.833,0.579c0.378,0,0.656-0.184,0.833-0.555   C171.482,83.094,171.571,82.342,171.571,81.211z M173.5,81.211c0,2.866-1.007,4.299-3.022,4.299c-1.001,0-1.756-0.366-2.265-1.097   c-0.508-0.73-0.762-1.798-0.762-3.202c0-2.86,1.007-4.291,3.021-4.291c0.984,0,1.736,0.359,2.253,1.075   C173.242,78.711,173.5,79.783,173.5,81.211z M164.984,82.347l1.692,0.104c-0.061,0.903-0.348,1.639-0.861,2.206   c-0.513,0.568-1.19,0.852-2.033,0.852c-1.026,0-1.807-0.381-2.344-1.143c-0.537-0.761-0.805-1.809-0.805-3.143   c0-1.347,0.267-2.401,0.799-3.162c0.533-0.761,1.325-1.143,2.374-1.143c1.738,0,2.684,1.075,2.839,3.223l-1.673,0.122   c-0.044-1.236-0.431-1.855-1.16-1.855c-0.383,0-0.687,0.199-0.913,0.598c-0.225,0.398-0.338,1.172-0.338,2.319   c0,1.025,0.103,1.731,0.311,2.115c0.207,0.384,0.519,0.576,0.933,0.576C164.473,84.019,164.865,83.462,164.984,82.347z    M157.695,83.537h1.703v1.844h-1.703V83.537z M151.773,77.048h5.067v1.429h-3.236v1.935h2.515v1.428h-2.515v2.051h3.236v1.49   h-5.067V77.048z M146.792,78.397v2.338h0.807c0.716,0,1.073-0.4,1.073-1.203c0-0.276-0.052-0.503-0.158-0.68   c-0.105-0.177-0.229-0.297-0.369-0.36c-0.14-0.064-0.347-0.095-0.62-0.095H146.792z M144.961,77.048h2.618   c0.509,0,0.898,0.024,1.169,0.07c0.271,0.047,0.545,0.173,0.821,0.378c0.277,0.206,0.494,0.486,0.651,0.842   c0.156,0.356,0.235,0.756,0.235,1.2c0,1.041-0.391,1.774-1.172,2.197l1.533,3.645h-1.994l-1.114-3.297h-0.916v3.297h-1.83V77.048z    M139.979,78.397v2.338h0.807c0.716,0,1.074-0.4,1.074-1.203c0-0.276-0.053-0.503-0.159-0.68c-0.106-0.177-0.229-0.297-0.369-0.36   c-0.141-0.064-0.347-0.095-0.62-0.095H139.979z M138.148,77.048h2.619c0.509,0,0.898,0.024,1.169,0.07   c0.27,0.047,0.545,0.173,0.821,0.378c0.276,0.206,0.493,0.486,0.65,0.842c0.156,0.356,0.235,0.756,0.235,1.2   c0,1.041-0.391,1.774-1.172,2.197l1.533,3.645h-1.993l-1.114-3.297h-0.916v3.297h-1.831V77.048z M134.943,81.211   c0-1.122-0.087-1.87-0.263-2.243c-0.175-0.372-0.454-0.558-0.836-0.558c-0.378,0-0.655,0.187-0.831,0.56   c-0.175,0.375-0.261,1.122-0.261,2.24c0,1.1,0.086,1.842,0.259,2.229c0.172,0.387,0.451,0.579,0.833,0.579   c0.378,0,0.656-0.184,0.833-0.555C134.854,83.094,134.943,82.342,134.943,81.211z M136.872,81.211c0,2.866-1.007,4.299-3.021,4.299   c-1.001,0-1.756-0.366-2.265-1.097c-0.508-0.73-0.762-1.798-0.762-3.202c0-2.86,1.007-4.291,3.021-4.291   c0.985,0,1.736,0.359,2.253,1.075C136.614,78.711,136.872,79.783,136.872,81.211z M128.356,82.347l1.691,0.104   c-0.061,0.903-0.347,1.639-0.861,2.206c-0.513,0.568-1.191,0.852-2.034,0.852c-1.025,0-1.806-0.381-2.343-1.143   c-0.537-0.761-0.806-1.809-0.806-3.143c0-1.347,0.267-2.401,0.799-3.162c0.533-0.761,1.325-1.143,2.374-1.143   c1.738,0,2.685,1.075,2.839,3.223l-1.672,0.122c-0.045-1.236-0.432-1.855-1.16-1.855c-0.383,0-0.687,0.199-0.913,0.598   c-0.225,0.398-0.338,1.172-0.338,2.319c0,1.025,0.103,1.731,0.311,2.115c0.207,0.384,0.519,0.576,0.933,0.576   C127.845,84.019,128.237,83.462,128.356,82.347z M121.097,81.211c0-1.122-0.087-1.87-0.263-2.243   c-0.175-0.372-0.454-0.558-0.836-0.558c-0.379,0-0.655,0.187-0.831,0.56c-0.175,0.375-0.261,1.122-0.261,2.24   c0,1.1,0.086,1.842,0.259,2.229c0.173,0.387,0.451,0.579,0.833,0.579c0.378,0,0.656-0.184,0.833-0.555   C121.009,83.094,121.097,82.342,121.097,81.211z M123.027,81.211c0,2.866-1.007,4.299-3.022,4.299   c-1.001,0-1.756-0.366-2.265-1.097c-0.508-0.73-0.762-1.798-0.762-3.202c0-2.86,1.007-4.291,3.022-4.291   c0.984,0,1.736,0.359,2.253,1.075C122.768,78.711,123.027,79.783,123.027,81.211z M112.955,80.937h2.894v4.444h-0.776l-0.238-0.952   c-0.448,0.72-1.119,1.081-2.015,1.081c-0.948,0-1.7-0.374-2.255-1.121c-0.557-0.747-0.833-1.751-0.833-3.012   c0-1.371,0.273-2.457,0.821-3.257c0.548-0.8,1.356-1.2,2.427-1.2c1.705,0,2.662,0.953,2.869,2.858l-1.649,0.268   c-0.113-1.09-0.508-1.635-1.183-1.635c-0.411,0-0.74,0.2-0.986,0.604c-0.246,0.403-0.369,1.166-0.369,2.289   c0,0.997,0.119,1.699,0.36,2.106c0.24,0.406,0.592,0.609,1.056,0.609c0.745,0,1.119-0.551,1.123-1.653h-1.245V80.937z    M102.937,77.048h2.033l2.142,5.177v-5.177h1.417v8.333h-1.636l-2.539-6.031v6.031h-1.416V77.048z M99.598,77.048h1.831v8.333   h-1.831V77.048z M90.228,77.048h2.686l1.178,5.146l1.325-5.146h2.607v8.333h-1.715v-6.978l-1.703,6.978h-1.331l-1.557-6.978v6.978   h-1.489V77.048z M87.023,81.211c0-1.122-0.087-1.87-0.263-2.243c-0.175-0.372-0.454-0.558-0.836-0.558   c-0.379,0-0.656,0.187-0.831,0.56c-0.175,0.375-0.262,1.122-0.262,2.24c0,1.1,0.086,1.842,0.26,2.229   c0.172,0.387,0.45,0.579,0.833,0.579c0.378,0,0.656-0.184,0.833-0.555C86.934,83.094,87.023,82.342,87.023,81.211z M88.951,81.211   c0,2.866-1.007,4.299-3.021,4.299c-1.001,0-1.756-0.366-2.265-1.097c-0.508-0.73-0.763-1.798-0.763-3.202   c0-2.86,1.007-4.291,3.022-4.291c0.984,0,1.735,0.359,2.252,1.075C88.693,78.711,88.951,79.783,88.951,81.211z M78.006,78.477   v5.475h0.313c0.424,0,0.753-0.081,0.986-0.244c0.232-0.163,0.418-0.447,0.557-0.853c0.139-0.405,0.208-0.991,0.208-1.757   c0-0.708-0.076-1.254-0.229-1.637c-0.153-0.383-0.345-0.643-0.576-0.779c-0.231-0.136-0.546-0.204-0.945-0.204H78.006z    M76.175,77.048h1.972c0.855,0,1.55,0.115,2.085,0.344c0.536,0.23,0.964,0.655,1.285,1.274c0.322,0.619,0.482,1.455,0.482,2.508   c0,0.749-0.098,1.414-0.293,1.994c-0.195,0.58-0.452,1.036-0.769,1.371c-0.318,0.333-0.676,0.557-1.075,0.671   c-0.399,0.114-0.898,0.171-1.496,0.171h-2.191V77.048z M72.97,81.211c0-1.122-0.087-1.87-0.263-2.243   c-0.175-0.372-0.454-0.558-0.836-0.558c-0.379,0-0.655,0.187-0.831,0.56c-0.175,0.375-0.262,1.122-0.262,2.24   c0,1.1,0.086,1.842,0.26,2.229c0.172,0.387,0.45,0.579,0.833,0.579c0.378,0,0.656-0.184,0.833-0.555   C72.881,83.094,72.97,82.342,72.97,81.211z M74.899,81.211c0,2.866-1.007,4.299-3.022,4.299c-1.001,0-1.756-0.366-2.265-1.097   c-0.508-0.73-0.763-1.798-0.763-3.202c0-2.86,1.007-4.291,3.022-4.291c0.984,0,1.736,0.359,2.253,1.075   C74.641,78.711,74.899,79.783,74.899,81.211z M63.196,77.048h5.194v1.562h-1.703v6.771h-1.832V78.61h-1.66V77.048z M57.037,77.048   h2.033l2.142,5.177v-5.177h1.416v8.333h-1.636l-2.54-6.031v6.031h-1.416V77.048z M53.775,82.231l-0.842-3.414l-0.808,3.414H53.775z    M52.183,77.048h1.844l2.381,8.333h-1.873l-0.417-1.722h-2.346l-0.408,1.722h-1.683L52.183,77.048z M49.279,78.861l-1.514,0.58   c-0.216-0.688-0.611-1.031-1.184-1.031c-0.269,0-0.482,0.075-0.639,0.228c-0.157,0.153-0.235,0.331-0.235,0.534   c0,0.237,0.093,0.424,0.278,0.565c0.184,0.141,0.572,0.324,1.162,0.552c0.537,0.2,0.959,0.398,1.267,0.593   c0.307,0.195,0.556,0.461,0.744,0.796c0.19,0.336,0.285,0.725,0.285,1.169c0,0.777-0.269,1.415-0.804,1.913   c-0.535,0.499-1.252,0.748-2.152,0.748c-1.51,0-2.474-0.764-2.894-2.289l1.599-0.458c0.195,0.838,0.642,1.257,1.337,1.257   c0.317,0,0.575-0.082,0.773-0.247c0.196-0.164,0.296-0.382,0.296-0.65c0-0.204-0.069-0.386-0.209-0.546   c-0.138-0.161-0.455-0.331-0.952-0.509c-0.639-0.229-1.115-0.435-1.428-0.62c-0.314-0.184-0.572-0.45-0.776-0.793   c-0.203-0.344-0.305-0.736-0.305-1.175c0-0.749,0.241-1.363,0.724-1.841c0.482-0.478,1.12-0.718,1.913-0.718   C48.017,76.919,48.92,77.567,49.279,78.861z M40.945,83.537h1.703v1.844h-1.703V83.537z M31.453,77.048h1.873l0.875,5.763   l1.093-5.763h1.678l1.027,5.797l1.02-5.797h1.543l-1.789,8.376H37.13l-1.112-5.794l-1.135,5.794h-1.624L31.453,77.048z    M22.065,77.048h1.873l0.875,5.763l1.091-5.763h1.679l1.029,5.797l1.019-5.797h1.542l-1.789,8.376h-1.642l-1.111-5.794   l-1.135,5.794h-1.624L22.065,77.048z M12.734,77.048h1.873l0.875,5.763l1.091-5.763h1.679l1.029,5.797l1.019-5.797h1.542   l-1.789,8.376h-1.642L17.3,79.63l-1.135,5.794H14.54L12.734,77.048z"/> <path fill-rule="evenodd" clip-rule="evenodd" fill="#007DC5" d="M0,41.158h73.639c0.536-0.132,1.074-0.808,1.614-2.019   c0.536-1.208,0.806-2.149,0.806-2.826c0-0.807-0.27-1.845-0.806-3.126c-0.54-1.276-0.943-1.917-1.211-1.917H14.325   c0-4.033,0.67-7.933,2.017-11.701c1.342-3.763,3.26-7.093,5.751-9.987c2.486-2.89,5.446-5.211,8.876-6.961   C34.397,0.877,38.261,0,42.569,0h49.228v11.097H42.569c-2.288,2.288-3.834,3.967-4.64,5.043c-0.401,0.674-0.706,1.21-0.909,1.615   c-0.201,0.401-0.302,0.875-0.302,1.41c0,0.273,0.267,0.944,0.809,2.019h50.235c1.477,0,2.889,0.538,4.236,1.615   c1.343,1.078,2.451,2.418,3.328,4.032c0.873,1.613,1.58,3.297,2.119,5.043c0.536,1.752,0.806,3.231,0.806,4.439   c0,1.887-0.37,3.769-1.109,5.651c-0.741,1.886-1.752,3.599-3.028,5.144c-1.281,1.548-2.793,2.826-4.538,3.833   c-1.75,1.007-3.63,1.514-5.649,1.514H0V41.158z M186.414,42.168c-0.27,1.208-0.976,2.42-2.116,3.632   c-1.146,1.208-2.459,2.317-3.934,3.328c-1.485,1.007-2.997,1.85-4.54,2.52c-1.55,0.676-2.861,1.009-3.935,1.009H106.12V0.202   h80.294v39.14V42.168z M162.408,40.35c2.017-0.67,3.559-1.543,4.637-2.621c1.076-1.078,1.884-2.422,2.422-4.036V12.307h-47.41   V40.35H162.408z"/> <path fill-rule="evenodd" clip-rule="evenodd" fill="#6D6E70" d="M182.173,64.441c0.366,0.364,0.548,0.807,0.548,1.332   c0,0.519-0.182,0.961-0.548,1.328c-0.367,0.364-0.809,0.548-1.331,0.548h-19.483c-0.522,0-0.969-0.184-1.331-0.548   c-0.365-0.366-0.548-0.809-0.548-1.328c0-0.526,0.183-0.969,0.548-1.332c0.362-0.366,0.809-0.548,1.331-0.548h19.483   C181.364,63.893,181.806,64.075,182.173,64.441z M160.929,60.998c-0.915,0-1.651,0.163-2.211,0.49   c-0.562,0.327-1.006,0.726-1.329,1.194c-0.327,0.471-0.549,0.984-0.667,1.543c-0.118,0.563-0.173,1.077-0.173,1.55   c0,0.465,0.055,0.981,0.173,1.543c0.118,0.562,0.34,1.077,0.667,1.545c0.324,0.469,0.767,0.869,1.329,1.192   c0.56,0.327,1.297,0.491,2.211,0.491h21.556c0.522,0,0.964,0.183,1.33,0.548c0.366,0.366,0.548,0.808,0.548,1.328   c0,0.525-0.183,0.966-0.548,1.331c-0.366,0.367-0.808,0.549-1.33,0.549h-22.809c-1.07,0-2.021-0.26-2.855-0.785   c-0.836-0.519-1.545-1.191-2.133-2.015c-0.587-0.824-1.036-1.741-1.349-2.755c-0.312-1.021-0.471-2.011-0.471-2.972   c0-0.991,0.163-1.992,0.49-2.997c0.325-1,0.801-1.913,1.429-2.737c0.625-0.821,1.381-1.494,2.268-2.015   c0.888-0.522,1.891-0.784,3.014-0.784h22.416c0.522,0,0.964,0.182,1.33,0.548c0.366,0.366,0.548,0.809,0.548,1.332   c0,0.519-0.183,0.963-0.548,1.328c-0.366,0.367-0.808,0.549-1.33,0.549H160.929z M148.957,72.42c0,0.525-0.182,0.966-0.549,1.331   c-0.363,0.367-0.807,0.549-1.33,0.549c-0.26,0-0.494-0.052-0.704-0.158c-0.209-0.102-0.403-0.232-0.587-0.392   c-0.155-0.153-0.273-0.286-0.352-0.388c-1.069-1.332-2.169-2.377-3.305-3.132c-1.135-0.755-2.326-1.332-3.58-1.721   c-1.251-0.391-2.576-0.631-3.969-0.722c-1.396-0.091-2.889-0.139-4.481-0.139h-7.983v4.771c0,0.525-0.19,0.966-0.566,1.331   c-0.378,0.367-0.815,0.549-1.311,0.549c-0.521,0-0.964-0.183-1.33-0.549c-0.364-0.365-0.548-0.806-0.548-1.331V62.368   c0-0.784,0.144-1.487,0.43-2.112c0.289-0.629,0.651-1.162,1.096-1.607c0.443-0.443,0.953-0.788,1.525-1.036   c0.575-0.248,1.15-0.372,1.723-0.372h20.422c0.73,0,1.423,0.138,2.075,0.414c0.651,0.275,1.227,0.645,1.721,1.113   c0.496,0.469,0.885,1.018,1.173,1.642c0.287,0.627,0.431,1.31,0.431,2.036c0,0.523-0.182,0.966-0.549,1.332   c-0.363,0.367-0.807,0.548-1.33,0.548c-0.521,0-0.966-0.181-1.328-0.548c-0.366-0.366-0.548-0.809-0.548-1.332   c0-0.391-0.139-0.717-0.412-0.976c-0.275-0.261-0.593-0.418-0.958-0.471h-20.5c-0.34,0-0.612,0.086-0.821,0.254   c-0.211,0.174-0.34,0.371-0.394,0.606v2.035h7.983c2.294,0,4.369,0.128,6.22,0.393c1.851,0.261,3.529,0.684,5.027,1.27   c1.5,0.588,2.842,1.357,4.029,2.308c1.189,0.954,2.253,2.117,3.19,3.502C148.826,71.703,148.957,72.059,148.957,72.42z    M114.453,72.42c0,0.525-0.185,0.966-0.549,1.331c-0.365,0.367-0.808,0.549-1.329,0.549c-0.263,0-0.496-0.052-0.705-0.158   c-0.209-0.102-0.403-0.232-0.586-0.392c-0.158-0.153-0.275-0.286-0.352-0.388c-1.072-1.332-2.172-2.377-3.307-3.132   c-1.134-0.755-2.328-1.332-3.581-1.721c-1.249-0.391-2.575-0.631-3.969-0.722c-1.394-0.091-2.887-0.139-4.481-0.139h-7.981v4.771   c0,0.525-0.189,0.966-0.568,1.331c-0.377,0.367-0.815,0.549-1.311,0.549c-0.522,0-0.964-0.183-1.328-0.549   c-0.367-0.365-0.549-0.806-0.549-1.331V62.368c0-0.784,0.143-1.487,0.431-2.112c0.287-0.629,0.651-1.162,1.096-1.607   c0.443-0.443,0.952-0.788,1.524-1.036c0.576-0.248,1.149-0.372,1.721-0.372h20.425c0.727,0,1.421,0.138,2.072,0.414   c0.653,0.275,1.227,0.645,1.721,1.113c0.497,0.469,0.885,1.018,1.175,1.642c0.286,0.627,0.431,1.31,0.431,2.036   c0,0.523-0.185,0.966-0.549,1.332c-0.365,0.367-0.808,0.548-1.329,0.548c-0.522,0-0.966-0.181-1.33-0.548   c-0.366-0.366-0.548-0.809-0.548-1.332c0-0.391-0.136-0.717-0.411-0.976c-0.274-0.261-0.594-0.418-0.958-0.471H88.826   c-0.338,0-0.612,0.086-0.821,0.254c-0.209,0.174-0.339,0.371-0.392,0.606v2.035h7.981c2.294,0,4.369,0.128,6.223,0.393   c1.851,0.261,3.526,0.684,5.024,1.27c1.502,0.588,2.842,1.357,4.031,2.308c1.187,0.954,2.251,2.117,3.187,3.502   C114.32,71.703,114.453,72.059,114.453,72.42z M74.114,70.053c0.576-0.323,1.024-0.722,1.351-1.192   c0.324-0.468,0.546-0.983,0.664-1.545c0.118-0.562,0.175-1.078,0.175-1.543c0-0.472-0.058-0.987-0.175-1.55   c-0.118-0.559-0.34-1.072-0.664-1.543c-0.327-0.468-0.776-0.867-1.351-1.194c-0.573-0.327-1.303-0.49-2.19-0.49H56.119   c-0.912,0-1.65,0.163-2.211,0.49c-0.56,0.327-1.003,0.726-1.33,1.194c-0.327,0.471-0.548,0.984-0.664,1.543   c-0.118,0.563-0.177,1.077-0.177,1.55c0,0.465,0.059,0.981,0.177,1.543c0.116,0.562,0.337,1.077,0.664,1.545   c0.327,0.469,0.77,0.869,1.33,1.192c0.561,0.327,1.299,0.491,2.211,0.491h15.806C72.811,70.544,73.542,70.38,74.114,70.053z    M79.943,65.774c0,0.99-0.163,1.985-0.488,2.991c-0.327,1.005-0.802,1.913-1.429,2.736c-0.625,0.824-1.382,1.496-2.267,2.015   c-0.887,0.525-1.893,0.785-3.014,0.785h-17.84c-1.07-0.052-2.02-0.346-2.855-0.88c-0.836-0.533-1.545-1.208-2.132-2.014   c-0.585-0.809-1.036-1.709-1.349-2.7c-0.312-0.99-0.471-1.971-0.471-2.932c0-0.991,0.163-1.992,0.49-2.997   c0.324-1,0.801-1.913,1.43-2.737c0.625-0.821,1.38-1.494,2.267-2.015c0.887-0.522,1.89-0.784,3.014-0.784h17.84   c1.067,0.053,2.02,0.345,2.855,0.881c0.833,0.536,1.544,1.205,2.132,2.014c0.588,0.813,1.037,1.71,1.349,2.701   C79.786,63.829,79.943,64.805,79.943,65.774z M12.3,65.774c0-0.991,0.163-1.992,0.49-2.997c0.324-1,0.801-1.913,1.43-2.737   c0.624-0.821,1.38-1.494,2.267-2.015c0.887-0.522,1.89-0.784,3.014-0.784H42.31c0.521,0,0.964,0.182,1.33,0.548   c0.364,0.366,0.548,0.809,0.548,1.332c0,0.519-0.184,0.963-0.548,1.328c-0.366,0.367-0.809,0.549-1.33,0.549H20.322   c-0.912,0-1.65,0.163-2.211,0.49c-0.56,0.327-1.003,0.726-1.329,1.194c-0.327,0.471-0.549,0.984-0.665,1.543   c-0.118,0.563-0.178,1.077-0.178,1.55c0,0.465,0.06,0.981,0.178,1.543c0.116,0.562,0.338,1.077,0.665,1.545   c0.326,0.469,0.769,0.869,1.329,1.192c0.561,0.327,1.299,0.491,2.211,0.491H42.31c0.521,0,0.964,0.183,1.33,0.548   c0.364,0.366,0.548,0.808,0.548,1.328c0,0.525-0.184,0.966-0.548,1.331c-0.366,0.367-0.809,0.549-1.33,0.549H19.107   c-1.069,0-2.018-0.26-2.854-0.785c-0.836-0.519-1.545-1.191-2.132-2.015c-0.586-0.824-1.037-1.741-1.349-2.755   C12.459,67.726,12.3,66.735,12.3,65.774z"/> </g> </svg>
